<?xml version="1.0" encoding="UTF-8" standalone="no"?><!DOCTYPE svg PUBLIC "-//W3C//DTD SVG 1.1//EN" "http://www.w3.org/Graphics/SVG/1.1/DTD/svg11.dtd"><svg width="100%" height="100%" viewBox="0 0 530 800" version="1.1" xmlns="http://www.w3.org/2000/svg" xmlns:xlink="http://www.w3.org/1999/xlink" xml:space="preserve" xmlns:serif="http://www.serif.com/" style="fill-rule:evenodd;clip-rule:evenodd;stroke-linejoin:round;stroke-miterlimit:2;"><path d="M257.093,424.069c-0,-0 -44.2,-15.696 -34.092,-51.55c10.117,-35.854 36.825,-33.863 64.404,-25.271c27.584,8.592 56.388,9.604 58.913,8.592c-24.763,51.554 -21.729,64.691 -55.088,68.229c-33.358,3.537 -34.137,-0 -34.137,-0" style="fill:#5caa2e;fill-rule:nonzero;"/><path d="M245.745,181.481c-0,-0 -33.355,-5.055 -78.838,-50.034c-45.487,-44.983 -46.5,-99.058 -52.562,-112.2c39.925,-2.525 102.595,-2.525 127.862,67.725c25.271,70.25 3.538,94.509 3.538,94.509" style="fill:#5caa2e;fill-rule:nonzero;"/><path d="M248.788,169.038c-0.362,-3.321 -1.629,-7.263 -2.925,-10.821c-1.383,-3.621 -2.946,-7.204 -4.733,-10.692c-3.529,-6.996 -7.575,-13.766 -11.963,-20.325c-8.775,-13.121 -18.783,-25.441 -29.266,-37.316c-10.538,-11.838 -21.667,-23.167 -33.629,-33.571c-5.975,-5.209 -12.167,-10.184 -18.68,-14.704c-6.52,-4.48 -13.266,-8.792 -20.691,-11.638c7.487,2.692 14.341,6.871 20.966,11.229c6.63,4.4 12.942,9.259 19.046,14.359c12.217,10.191 23.629,21.329 34.45,32.991c10.821,11.663 21.221,23.779 30.45,36.834c4.617,6.525 8.913,13.295 12.721,20.387c3.708,7.217 7.254,14.263 8.696,23l-4.442,0.267Z" style="fill:#506815;fill-rule:nonzero;"/><path d="M147.423,20.13c4.35,4.204 7.579,9.459 10.179,14.917c2.504,5.521 4.3,11.362 5.421,17.321l0.158,0.829l-0.829,-0.192c-2.904,-0.675 -6.025,-0.491 -9.058,-0.141c-3.046,0.366 -6.084,0.933 -9.092,1.604c-6.021,1.375 -11.983,3.071 -17.871,5.012c5.754,-2.312 11.646,-4.3 17.675,-5.825c3.004,-0.8 6.071,-1.379 9.167,-1.787c3.096,-0.384 6.267,-0.629 9.442,0.066l-0.675,0.634c-0.588,-2.934 -1.209,-5.863 -2.088,-8.725c-0.812,-2.884 -1.925,-5.667 -3.05,-8.438c-1.192,-2.746 -2.537,-5.429 -4.096,-7.987c-1.537,-2.575 -3.229,-5.079 -5.283,-7.288" style="fill:#506815;fill-rule:nonzero;"/><path d="M172.212,26.323c3.825,1.904 6.562,5.463 8.596,9.154c1.941,3.788 3.325,7.875 4.07,12.063c0.48,2.075 0.625,4.204 0.955,6.304c0.116,2.121 0.32,4.246 0.366,6.367c0.075,4.25 -0.1,8.491 -0.454,12.729l-0.054,0.608l-0.621,-0.133c-4.4,-0.963 -8.862,-1.792 -13.387,-1.913c-4.513,-0.258 -9.05,-0.012 -13.534,0.625c-4.487,0.604 -8.916,1.625 -13.237,3.004c-4.334,1.334 -8.579,3.005 -12.584,5.171c7.863,-4.587 16.684,-7.558 25.717,-8.891c4.517,-0.705 9.1,-1.013 13.675,-0.817c4.583,0.062 9.121,0.846 13.608,1.767l-0.666,0.475l0.446,-6.3c0.12,-2.1 0.091,-4.205 0.141,-6.309c-0.012,-2.104 -0.183,-4.2 -0.262,-6.3c-0.292,-2.083 -0.409,-4.191 -0.85,-6.246c-0.671,-4.15 -1.975,-8.187 -3.825,-11.945c-1.846,-3.713 -4.371,-7.342 -8.1,-9.413" style="fill:#506815;fill-rule:nonzero;"/><path d="M202.743,37.441c5.28,8.43 7.725,18.43 8.163,28.342c0.087,4.971 -0.059,9.983 -1.004,14.883c-0.784,4.925 -2.184,9.725 -3.834,14.425l-0.166,0.475l-0.492,-0.141c-4.725,-1.359 -9.808,-1.267 -14.758,-0.913c-4.975,0.404 -9.917,1.229 -14.817,2.259c-9.783,2.125 -19.446,4.854 -28.954,8.054c9.371,-3.584 18.983,-6.592 28.8,-8.767c4.908,-1.087 9.871,-1.979 14.892,-2.45c5.008,-0.412 10.154,-0.592 15.141,0.775l-0.662,0.329c0.712,-2.354 1.608,-4.654 2.27,-7.021c0.546,-2.395 1.326,-4.75 1.646,-7.191c1,-4.825 1.209,-9.775 1.184,-14.688c-0.121,-4.929 -0.838,-9.833 -2.05,-14.608c-1.184,-4.779 -2.854,-9.483 -5.359,-13.763" style="fill:#506815;fill-rule:nonzero;"/><path d="M233.399,65.166c0.509,9.646 0.459,19.329 -0.287,28.975c-0.338,4.825 -0.913,9.638 -1.771,14.413c-0.904,4.75 -1.971,9.562 -4.346,13.929l-0.196,0.362l-0.416,-0.1c-4.23,-1 -8.759,-0.812 -13.163,-0.4c-4.425,0.442 -8.837,1.125 -13.212,1.992c-8.742,1.775 -17.425,3.904 -26.025,6.35c8.479,-2.833 17.112,-5.242 25.879,-7.063c4.383,-0.929 8.804,-1.675 13.271,-2.179c4.45,-0.471 9.008,-0.75 13.525,0.25l-0.613,0.259c2.233,-4.171 3.438,-8.884 4.363,-13.58c0.916,-4.712 1.55,-9.495 1.954,-14.295c0.791,-9.605 1.091,-19.259 1.037,-28.913" style="fill:#506815;fill-rule:nonzero;"/><path d="M270.256,304.796c0,0 -21.8,-66.712 17.15,-90.971c38.95,-24.258 81.404,-1.516 108.696,-21.225c-6.825,56.854 -16.75,66.809 -39.004,82.629c-22.254,15.825 -86.842,29.567 -86.842,29.567" style="fill:#1c5e1c;fill-rule:nonzero;"/><path d="M239.686,319.2c-0,0 -61.913,4.546 -96.029,-53.825c-34.113,-58.375 5.308,-108.716 9.854,-136.991c50.033,17.212 90.758,55.095 100.925,100.87c10.171,45.775 -11.967,84.638 -14.75,89.946" style="fill:#1c5e1c;fill-rule:nonzero;"/><path d="M237.81,317.235c-3.779,-2.634 -6.333,-5.529 -9.075,-8.596c-2.658,-3.05 -5.062,-6.275 -7.362,-9.554c-4.584,-6.575 -8.634,-13.454 -12.434,-20.45c-7.491,-14.054 -13.791,-28.65 -19.529,-43.429c-5.746,-14.78 -10.825,-29.83 -14.817,-45.175c-1.983,-7.675 -3.725,-15.417 -4.941,-23.246c-1.192,-7.821 -2.15,-15.75 -1.663,-23.663c-0.329,7.917 0.784,15.809 2.125,23.584c1.371,7.787 3.263,15.47 5.388,23.079c4.283,15.216 9.637,30.112 15.658,44.721c6.054,14.587 12.717,28.937 20.467,42.641c3.929,6.817 8.096,13.492 12.729,19.792c2.321,3.137 4.737,6.212 7.354,9.062c2.554,2.78 5.483,5.709 8.258,7.538l-2.158,3.696Z" style="fill:#506815;fill-rule:nonzero;"/><path d="M152.23,157.817c1.075,2.742 2.525,5.309 4.1,7.779c1.542,2.492 3.255,4.875 5.105,7.138c1.895,2.233 3.845,4.421 6,6.4c2.1,2.037 4.395,3.854 6.679,5.675l-0.834,0.333c0.563,-3.083 1.921,-5.846 3.355,-8.504c1.462,-2.654 3.091,-5.2 4.841,-7.658c3.45,-4.95 7.309,-9.588 11.429,-13.975c-3.82,4.646 -7.458,9.433 -10.854,14.371c-1.691,2.475 -3.258,5.033 -4.646,7.67c-1.366,2.638 -2.629,5.392 -3.091,8.263l-0.138,0.871l-0.696,-0.538c-4.687,-3.625 -8.916,-7.833 -12.604,-12.454c-3.646,-4.646 -6.8,-9.758 -8.646,-15.371" style="fill:#506815;fill-rule:nonzero;"/><path d="M140.087,174.636c1.708,4.721 4.283,9.071 7.212,13.105c2.913,4.05 6.242,7.804 9.95,11.141c3.771,3.254 7.709,6.354 12.063,8.8c2.087,1.371 4.396,2.35 6.587,3.521c2.246,1.079 4.596,1.933 6.867,2.958l-0.7,0.405c0.846,-4.38 1.825,-8.746 3.404,-12.925c1.45,-4.217 3.388,-8.255 5.579,-12.125c4.388,-7.738 10.134,-14.759 17.096,-20.259c-3.396,2.854 -6.4,6.138 -9.125,9.613c-2.75,3.454 -5.258,7.112 -7.367,10.991c-2.12,3.863 -3.987,7.884 -5.366,12.071c-1.504,4.146 -2.413,8.471 -3.192,12.8l-0.117,0.642l-0.583,-0.233c-4.679,-1.884 -9.267,-4.017 -13.55,-6.68c-4.371,-2.529 -8.317,-5.712 -12.083,-9.045c-7.342,-6.85 -13.509,-15.221 -16.675,-24.78" style="fill:#506815;fill-rule:nonzero;"/><path d="M136.634,209.038c3.6,4.358 7.646,8.321 11.909,12.004c4.241,3.709 8.75,7.121 13.545,10.071c4.78,2.963 9.842,5.488 15.134,7.363c5.279,1.925 10.808,3.075 16.379,3.587l-0.558,0.463c0.654,-4.967 2.62,-9.555 4.766,-13.946c2.204,-4.384 4.754,-8.571 7.467,-12.634c5.421,-8.137 11.529,-15.795 18.079,-23.029c-6.254,7.488 -12.129,15.288 -17.5,23.413c-2.65,4.079 -5.133,8.271 -7.267,12.633c-2.07,4.367 -3.941,8.925 -4.512,13.679l-0.058,0.504l-0.5,-0.041c-11.405,-0.946 -22.263,-5.321 -31.813,-11.379c-9.579,-6.08 -18.1,-13.792 -25.071,-22.688" style="fill:#506815;fill-rule:nonzero;"/><path d="M158.463,255.628c7.991,4.071 16.133,7.842 24.445,11.163c4.167,1.629 8.392,3.108 12.709,4.258c4.291,1.129 8.733,2.025 13.1,1.729l-0.471,0.446c0.887,-4.779 3.337,-8.9 5.821,-12.846c2.55,-3.942 5.379,-7.667 8.316,-11.296c5.88,-7.262 12.28,-14.087 18.988,-20.566c-6.433,6.754 -12.613,13.745 -18.442,21.004c-2.883,3.65 -5.654,7.396 -8.125,11.321c-2.416,3.92 -4.766,8.07 -5.525,12.529l-0.075,0.416l-0.396,0.03c-4.625,0.35 -9.1,-0.717 -13.433,-1.888c-4.342,-1.225 -8.575,-2.775 -12.733,-4.467c-8.334,-3.379 -16.392,-7.37 -24.179,-11.833" style="fill:#506815;fill-rule:nonzero;"/><path d="M290.357,383.816c0,0 17.554,-51.612 84.138,-65.375c47.55,-9.829 101.583,-9.475 117.883,4.929c16.3,14.404 23.5,43.592 31.083,44.346c-8.341,8.342 -18.196,14.404 -44.729,33.738c-26.529,19.333 -85.283,24.637 -119.017,17.812c-33.737,-6.821 -69.358,-35.45 -69.358,-35.45" style="fill:#1c5e1c;fill-rule:nonzero;"/><path d="M239.682,415.477c0.304,-2.062 -20.721,-54.079 -72.271,-68.229c-51.55,-14.15 -103.1,8.592 -114.221,34.113c-11.117,25.525 -10.108,38.158 -23.75,43.72c25.267,5.559 23.246,21.225 64.183,33.863c40.938,12.633 134.938,31.837 146.059,-43.467" style="fill:#1c5e1c;fill-rule:nonzero;"/><path d="M236.146,267.902c-0,0 -51.046,-78.841 -108.663,-104.616c-57.612,-25.775 -106.637,8.845 -127.483,39.925c17.813,0.379 36.388,13.645 68.608,37.904c32.217,24.262 127.734,63.429 167.538,26.787" style="fill:#347a34;fill-rule:nonzero;"/><path d="M295.277,225.196c-0,0 20.466,-68.987 105.375,-89.454c84.904,-20.467 120.537,6.062 128.875,27.292c-23.505,8.337 -42.455,28.808 -84.909,48.516c-42.454,19.713 -121.671,20.85 -149.341,13.646" style="fill:#388c38;fill-rule:nonzero;"/><path d="M239.686,544.353c-0,-0 25.462,-48.159 14.75,-160.538c-10.708,-112.375 -14.9,-205.933 -1.438,-255.433c-0.179,61.183 -2.958,70.787 -0.933,102.879c2.021,32.092 10.863,128.625 16.425,170.571c5.558,41.946 -2.525,120.283 -11.121,146.058c-14.654,8.088 -17.683,-3.537 -17.683,-3.537" style="fill:#506815;fill-rule:nonzero;"/><path d="M251.392,169.351c0,0 -29.816,0 -43.97,-28.3c-14.15,-28.304 5.054,-95.521 40.433,-119.275c35.379,-23.754 57.617,-21.733 57.617,-21.733c-0,-0 39.416,33.816 31.333,84.633c-8.083,50.813 -43.971,80.125 -85.413,84.675" style="fill:#388c38;fill-rule:nonzero;"/><path d="M254.436,337.395c-0,-0 -31.95,6.821 -36.113,-17.438c-4.162,-24.258 61.029,-34.112 92.113,-32.596c31.079,1.513 37.146,5.459 46.246,42.15c-15.167,-10.312 -23.505,-17.133 -40.938,-6.52c-17.437,10.612 -29.35,22.112 -61.308,14.404" style="fill:#388c38;fill-rule:nonzero;"/><path d="M246.623,265.809c8.221,-9.867 17.3,-18.308 26.904,-26.35c9.563,-8.029 19.725,-15.296 30.213,-22c10.421,-6.838 21.437,-12.675 32.504,-18.321c5.667,-2.562 11.246,-5.312 16.983,-7.692c5.796,-2.237 11.45,-4.837 17.355,-6.779c23.4,-8.304 47.304,-14.908 71.554,-20.004c12.146,-2.412 24.379,-4.425 36.708,-5.583c12.313,-1.054 24.792,-1.742 37.033,0.162c-12.27,-1.654 -24.704,-0.712 -36.954,0.592c-12.266,1.404 -24.421,3.662 -36.475,6.308c-24.033,5.567 -47.779,12.659 -70.804,21.367c-5.812,2.042 -11.367,4.733 -17.054,7.067c-5.629,2.47 -11.096,5.304 -16.646,7.95c-10.829,5.812 -21.583,11.787 -31.712,18.737c-10.2,6.821 -20.05,14.171 -29.267,22.238c-9.196,7.995 -18.1,16.691 -25.525,25.987l-4.817,-3.679Z" style="fill:#506815;fill-rule:nonzero;"/><path d="M489.096,140.29c-3.283,0.191 -6.304,1.65 -9.104,3.233c-2.813,1.592 -5.479,3.458 -7.954,5.558c-2.492,2.075 -4.892,4.267 -7.167,6.58c-2.283,2.316 -4.417,4.77 -6.567,7.212l-0.371,-1.208c5.921,1.725 11.43,4.466 16.588,7.679c5.158,3.217 10.033,6.862 14.575,10.875c-4.871,-3.6 -9.954,-6.883 -15.158,-9.9c-5.242,-2.938 -10.642,-5.667 -16.392,-7.204l-1.158,-0.313l0.779,-0.9c2.15,-2.487 4.387,-4.9 6.716,-7.225c2.363,-2.291 4.771,-4.546 7.413,-6.529c2.608,-2.021 5.4,-3.804 8.342,-5.3c2.966,-1.392 6.154,-2.625 9.458,-2.558" style="fill:#506815;fill-rule:nonzero;"/><path d="M457.736,135.741c-7.608,5.041 -14.725,10.762 -21.529,16.795c-3.371,3.059 -6.725,6.125 -9.888,9.392c-3.221,3.213 -6.216,6.633 -9.212,10.046l-0.375,-1.208c4.121,1.158 8.037,2.762 11.921,4.42c3.875,1.671 7.708,3.438 11.462,5.346c7.55,3.746 14.933,7.804 22.196,12.067c-7.513,-3.8 -15.079,-7.483 -22.688,-11.042c-7.637,-3.454 -15.283,-7.1 -23.279,-9.346l-1.141,-0.32l0.766,-0.888c5.984,-6.937 12.479,-13.437 19.459,-19.367c6.979,-5.908 14.387,-11.345 22.308,-15.895" style="fill:#506815;fill-rule:nonzero;"/><path d="M413.791,137.004c-4.696,2.138 -8.971,5.084 -12.9,8.371c-3.942,3.271 -7.509,6.992 -10.571,11.084c-6.204,8.133 -10.367,17.704 -12.471,27.695l-0.571,-0.887c8.904,2.129 17.242,6.146 24.663,11.354c7.437,5.196 14.179,11.354 19.933,18.304c-6.146,-6.596 -13.112,-12.391 -20.567,-17.366c-3.737,-2.48 -7.67,-4.634 -11.712,-6.538c-4.05,-1.892 -8.317,-3.246 -12.638,-4.292l-0.725,-0.175l0.15,-0.712c2.184,-10.171 6.517,-19.95 12.996,-28.113c6.463,-8.129 14.842,-14.82 24.413,-18.725" style="fill:#506815;fill-rule:nonzero;"/><path d="M364.759,154.188c-3.742,3.196 -7.25,6.658 -10.583,10.258c-3.363,3.575 -6.529,7.329 -9.375,11.308c-5.625,7.863 -10.534,16.875 -10.654,26.567l-0.563,-0.725c6.767,1.829 13.196,4.746 19.025,8.546c5.85,3.758 11.238,8.217 15.946,13.287c-5.075,-4.691 -10.667,-8.779 -16.546,-12.32c-5.892,-3.513 -12.167,-6.4 -18.787,-8.059l-0.575,-0.146l0.008,-0.583c0.037,-5.075 1.429,-10.017 3.487,-14.542c2.046,-4.554 4.7,-8.791 7.696,-12.733c6.009,-7.887 13.138,-14.829 20.921,-20.858" style="fill:#506815;fill-rule:nonzero;"/><path d="M263.844,405.467c6.979,-10.154 16.287,-16.075 25.929,-21.579c9.704,-5.267 19.912,-9.417 30.362,-12.629c20.88,-6.538 42.513,-9.808 64.092,-11.904c21.583,-2.071 43.283,-3.109 64.958,-2.521c10.834,0.287 21.671,0.979 32.413,2.408c10.712,1.463 21.487,3.296 31.633,7.125c-10.216,-3.621 -21,-5.225 -31.712,-6.471c-10.742,-1.204 -21.554,-1.675 -32.354,-1.741c-21.613,-0.146 -43.209,1.325 -64.663,3.825c-21.4,2.6 -42.733,6.429 -63.037,13.358c-10.15,3.404 -19.984,7.717 -29.163,13.004c-4.633,2.584 -8.908,5.688 -13.017,8.921c-1.954,1.725 -3.92,3.429 -5.67,5.308c-1.709,1.796 -3.521,3.955 -4.521,5.713l-5.25,-2.817Z" style="fill:#506815;fill-rule:nonzero;"/><path d="M491.061,342.874c-3.204,-0.479 -6.404,0.3 -9.425,1.242c-3.041,0.95 -5.996,2.187 -8.812,3.695c-2.829,1.475 -5.592,3.088 -8.263,4.842c-2.675,1.754 -5.237,3.671 -7.808,5.575l-0.121,-1.242c5.375,2.834 10.163,6.555 14.521,10.663c4.362,4.112 8.362,8.579 11.967,13.337c-4.005,-4.42 -8.275,-8.583 -12.713,-12.512c-4.492,-3.858 -9.179,-7.55 -14.433,-10.171l-1.063,-0.533l0.946,-0.713c2.583,-1.946 5.238,-3.804 7.963,-5.554c2.745,-1.717 5.533,-3.383 8.487,-4.742c2.925,-1.404 5.992,-2.533 9.125,-3.366c3.142,-0.725 6.463,-1.25 9.629,-0.521" style="fill:#506815;fill-rule:nonzero;"/><path d="M461.602,332.205c-8.355,3.275 -16.384,7.296 -24.171,11.683c-7.792,4.388 -15.279,9.3 -22.384,14.713l-0.116,-1.238c3.758,1.929 7.225,4.25 10.654,6.613c3.421,2.379 6.775,4.837 10.037,7.42c6.567,5.096 12.913,10.467 19.101,16.009c-6.521,-5.146 -13.113,-10.188 -19.771,-15.121c-6.713,-4.838 -13.388,-9.854 -20.675,-13.608l-1.05,-0.542l0.929,-0.7c14.396,-10.8 30.35,-19.675 47.446,-25.229" style="fill:#506815;fill-rule:nonzero;"/><path d="M418.8,324.545c-4.942,1.087 -9.646,3.021 -14.092,5.362c-4.463,2.313 -8.654,5.138 -12.438,8.421c-7.641,6.5 -13.612,14.821 -17.654,23.975l-0.371,-0.967c4.05,1.95 7.971,4.184 11.55,6.888c3.567,2.708 6.996,5.612 10.034,8.892c6.179,6.454 11.487,13.708 15.704,21.533c-4.658,-7.563 -10.263,-14.508 -16.496,-20.754c-3.121,-3.121 -6.508,-5.963 -10.033,-8.588c-3.542,-2.625 -7.396,-4.762 -11.359,-6.629l-0.662,-0.312l0.292,-0.659c4.154,-9.316 10.333,-17.804 18.241,-24.275c7.888,-6.45 17.304,-11.108 27.284,-12.887" style="fill:#506815;fill-rule:nonzero;"/><path d="M367.908,331.057c-4.246,2.288 -8.316,4.875 -12.254,7.638c-3.962,2.725 -7.771,5.662 -11.321,8.883c-7.008,6.363 -13.591,13.979 -15.641,23.25l-0.404,-0.812c6.17,3.104 11.808,7.17 16.7,11.975c4.92,4.766 9.262,10.116 12.825,15.925c-3.992,-5.513 -8.6,-10.546 -13.588,-15.113c-5.008,-4.533 -10.508,-8.55 -16.571,-11.462l-0.525,-0.25l0.121,-0.563c1.054,-4.862 3.404,-9.317 6.308,-13.229c2.9,-3.938 6.313,-7.45 10,-10.6c7.388,-6.308 15.65,-11.475 24.35,-15.642" style="fill:#506815;fill-rule:nonzero;"/><path d="M265.785,434.292c-1.021,-1.404 -2.8,-3.137 -4.488,-4.512c-1.708,-1.463 -3.608,-2.75 -5.517,-4.013c-3.891,-2.441 -8.008,-4.608 -12.308,-6.404c-8.575,-3.667 -17.642,-6.279 -26.829,-8.35c-18.454,-3.921 -37.421,-5.408 -56.379,-5.808c-18.979,-0.35 -37.992,0.146 -56.9,1.941c-9.45,0.925 -18.884,2.121 -28.209,3.938c-9.304,1.842 -18.629,3.979 -27.395,7.696c8.695,-3.892 18,-6.213 27.283,-8.246c9.312,-2 18.746,-3.388 28.2,-4.496c18.925,-2.175 37.987,-3.046 57.037,-3.067c19.05,-0.029 38.213,0.942 57.096,4.467c9.409,1.875 18.759,4.304 27.775,7.896c4.517,1.754 8.909,3.912 13.129,6.421c2.088,1.304 4.167,2.641 6.117,4.221c1.996,1.608 3.783,3.095 5.625,5.495l-4.237,2.821Z" style="fill:#506815;fill-rule:nonzero;"/><path d="M57.74,395.262c7.054,-0.358 14.129,0.867 20.925,2.821c6.783,2.042 13.3,4.963 19.404,8.571l0.925,0.55l-0.941,0.537c-3.017,1.725 -5.571,4.28 -7.959,6.896c-2.383,2.646 -4.587,5.463 -6.704,8.35c-4.208,5.788 -8.108,11.821 -11.754,18.013c3.254,-6.409 6.875,-12.642 10.975,-18.567c2.017,-2.987 4.237,-5.842 6.629,-8.558c2.413,-2.692 4.967,-5.334 8.196,-7.229l-0.017,1.087c-3.029,-1.742 -6.079,-3.458 -9.279,-4.883c-3.154,-1.517 -6.467,-2.663 -9.771,-3.813c-3.325,-1.091 -6.725,-1.962 -10.171,-2.608c-3.437,-0.667 -6.933,-1.158 -10.458,-1.167" style="fill:#506815;fill-rule:nonzero;"/><path d="M71.638,374.793c11.979,-0.608 23.958,2.5 34.783,7.604c5.354,2.684 10.625,5.642 15.35,9.371c4.842,3.563 9.213,7.721 13.346,12.079l0.529,0.554l-0.683,0.405c-4.529,2.675 -8.996,5.495 -13.038,8.891c-4.137,3.271 -7.883,7.017 -11.366,10.975c-3.504,3.95 -6.584,8.267 -9.35,12.763c-2.796,4.479 -5.271,9.191 -7.084,14.179c3.325,-10.083 8.913,-19.388 15.805,-27.483c3.462,-4.038 7.195,-7.871 11.337,-11.234c4.042,-3.483 8.529,-6.4 13.088,-9.175l-0.155,0.959c-2.133,-2.063 -4.1,-4.3 -6.283,-6.309c-2.258,-1.921 -4.367,-4.037 -6.8,-5.746c-4.625,-3.745 -9.8,-6.729 -15.071,-9.454c-5.325,-2.65 -10.962,-4.65 -16.729,-6.1c-5.754,-1.475 -11.7,-2.416 -17.679,-2.279" style="fill:#506815;fill-rule:nonzero;"/><path d="M109.038,356.346c12.842,3.8 25.075,9.78 35.967,17.655c10.854,7.85 20.45,17.895 26.366,30.112l0.263,0.542l-0.538,0.279c-5.096,2.629 -9.446,6.587 -13.496,10.704c-4.025,4.179 -7.72,8.683 -11.22,13.329c-6.934,9.346 -13.296,19.134 -19.15,29.217c5.445,-10.313 11.558,-20.296 18.483,-29.713c3.458,-4.704 7.125,-9.279 11.137,-13.55c4.055,-4.208 8.396,-8.283 13.675,-11.091l-0.275,0.821c-2.941,-5.942 -6.608,-11.538 -11.025,-16.517c-4.37,-5.013 -9.37,-9.479 -14.729,-13.442c-5.354,-3.975 -11.083,-7.446 -17.029,-10.483c-5.925,-3.075 -12.062,-5.796 -18.429,-7.863" style="fill:#506815;fill-rule:nonzero;"/><path d="M170.812,360.389c8.271,6.596 16.146,13.7 23.45,21.375c3.658,3.833 7.191,7.8 10.404,12.042c3.146,4.254 6.246,8.712 7.808,13.958l0.138,0.462l-0.442,0.255c-4.671,2.7 -8.371,7.012 -11.775,11.316c-3.396,4.367 -6.467,9 -9.383,13.717c-5.763,9.487 -11.079,19.258 -16.021,29.217c4.525,-10.159 9.567,-20.105 15.312,-29.646c2.871,-4.775 5.896,-9.467 9.275,-13.921c3.405,-4.396 7.03,-8.804 12,-11.775l-0.3,0.712c-1.508,-4.925 -4.4,-9.42 -7.483,-13.65c-3.117,-4.233 -6.571,-8.233 -10.158,-12.095c-7.229,-7.68 -14.896,-14.971 -22.825,-21.967" style="fill:#506815;fill-rule:nonzero;"/><path d="M247.958,281.019c-32.3,-25.155 -68.187,-45.95 -106.596,-60.559c-38.35,-14.575 -79.429,-22.854 -120.72,-21.887c41.254,-2.004 82.758,5.25 121.787,18.975c39.088,13.754 75.896,33.85 109.279,58.529l-3.75,4.942Z" style="fill:#506815;fill-rule:nonzero;"/><path d="M47.067,178.471c3.35,-0.054 6.554,1.313 9.504,2.821c2.929,1.617 5.684,3.546 8.254,5.679c5.138,4.284 9.605,9.288 13.78,14.467l0.716,0.888l-1.104,0.32c-5.746,1.659 -11.092,4.584 -16.262,7.7c-5.13,3.209 -10.121,6.688 -14.888,10.475c4.417,-4.195 9.183,-8.037 14.263,-11.445c5.079,-3.405 10.533,-6.342 16.466,-8.2l-0.391,1.208c-2.092,-2.546 -4.155,-5.113 -6.38,-7.542c-2.216,-2.433 -4.566,-4.737 -7,-6.941c-2.433,-2.209 -5.045,-4.221 -7.841,-5.93c-2.775,-1.691 -5.788,-3.291 -9.117,-3.5" style="fill:#506815;fill-rule:nonzero;"/><path d="M78.006,173.646c7.917,4.9 15.254,10.72 22.15,16.995c6.879,6.3 13.254,13.163 19.092,20.446l0.708,0.884l-1.096,0.329c-7.942,2.404 -15.483,6.279 -23.017,9.941c-7.504,3.78 -14.958,7.688 -22.35,11.713c7.121,-4.492 14.38,-8.775 21.817,-12.742c3.7,-2.021 7.479,-3.896 11.313,-5.675c3.837,-1.762 7.708,-3.471 11.816,-4.708l-0.391,1.208c-2.925,-3.583 -5.85,-7.179 -9.009,-10.571c-3.091,-3.445 -6.4,-6.695 -9.716,-9.937c-3.317,-3.233 -6.788,-6.321 -10.342,-9.3c-3.533,-3.013 -7.154,-5.925 -10.975,-8.583" style="fill:#506815;fill-rule:nonzero;"/><path d="M121.361,174.986c4.892,2.113 9.379,5.109 13.484,8.53c4.05,3.491 7.783,7.395 10.9,11.766c3.079,4.379 5.841,9.038 7.816,14.038c2.15,4.925 3.571,10.125 4.734,15.362l0.154,0.709l-0.729,0.187c-4.346,1.117 -8.605,2.617 -12.642,4.633c-4.017,2.05 -7.9,4.38 -11.588,7.009c-7.333,5.3 -14.137,11.416 -20.108,18.296c5.558,-7.225 12.117,-13.705 19.425,-19.234c7.3,-5.525 15.583,-9.9 24.558,-12.196l-0.575,0.892c-1.17,-5.133 -2.462,-10.262 -4.545,-15.112c-1.871,-4.938 -4.609,-9.484 -7.496,-13.875c-2.946,-4.384 -6.513,-8.33 -10.417,-11.888c-3.892,-3.571 -8.192,-6.771 -12.971,-9.117" style="fill:#506815;fill-rule:nonzero;"/><path d="M169.735,193.211c7.842,6.542 14.946,14.034 20.863,22.438c2.962,4.196 5.529,8.7 7.508,13.479c1.975,4.763 3.3,9.892 3.329,15.138l0.005,0.587l-0.567,0.154c-6.633,1.784 -12.863,4.909 -18.675,8.642c-5.783,3.779 -11.267,8.1 -16.208,13.004c4.55,-5.279 9.808,-9.971 15.562,-13.971c5.738,-4.025 12.125,-7.187 18.921,-9.154l-0.567,0.738c-0.091,-10.063 -4.779,-19.546 -10.316,-27.93c-2.792,-4.237 -5.934,-8.25 -9.275,-12.091c-3.313,-3.863 -6.817,-7.579 -10.58,-11.034" style="fill:#506815;fill-rule:nonzero;"/><path d="M246.986,189.914c-0.988,-4.5 -0.9,-8.359 -0.829,-12.471c0.121,-4.046 0.546,-8.046 1.083,-12.013c1.092,-7.941 2.788,-15.741 4.746,-23.458c4.037,-15.404 9.317,-30.404 15.137,-45.15c5.813,-14.754 12.296,-29.25 19.784,-43.229c3.75,-6.984 7.729,-13.85 12.15,-20.429c4.437,-6.546 9.112,-13.021 14.841,-18.5c-5.616,5.591 -10.154,12.141 -14.445,18.758c-4.284,6.65 -8.109,13.575 -11.713,20.608c-7.183,14.079 -13.362,28.654 -18.858,43.467c-5.459,14.821 -10.3,29.883 -13.913,45.208c-1.741,7.671 -3.208,15.4 -4.083,23.171c-0.429,3.883 -0.738,7.779 -0.754,11.646c-0.013,3.779 0.15,7.912 0.941,11.142l-4.087,1.25Z" style="fill:#506815;fill-rule:nonzero;"/><path d="M292.351,14.757c-1.071,2.742 -1.75,5.612 -2.271,8.496c-0.562,2.875 -0.92,5.787 -1.095,8.708c-0.125,2.925 -0.18,5.854 0.062,8.771c0.158,2.925 0.613,5.812 1.054,8.7l-0.841,-0.321c2.508,-1.883 5.379,-2.992 8.237,-3.967c2.875,-0.958 5.8,-1.725 8.754,-2.341c5.892,-1.292 11.879,-2.075 17.875,-2.5c-5.958,0.816 -11.879,1.862 -17.725,3.183c-2.921,0.671 -5.804,1.488 -8.616,2.483c-2.792,1.005 -5.588,2.171 -7.88,3.967l-0.691,0.542l-0.146,-0.867c-0.979,-5.842 -1.229,-11.8 -0.8,-17.7c0.475,-5.883 1.629,-11.779 4.083,-17.154" style="fill:#506815;fill-rule:nonzero;"/><path d="M272.014,18.866c-1.946,4.625 -3.012,9.563 -3.596,14.517c-0.612,4.95 -0.716,9.967 -0.258,14.938c0.563,4.945 1.35,9.895 2.888,14.645c0.6,2.425 1.629,4.709 2.441,7.063c0.921,2.312 2.067,4.537 3.038,6.829l-0.788,-0.179c3.592,-2.638 7.279,-5.183 11.271,-7.179c3.929,-2.109 8.092,-3.763 12.329,-5.117c8.475,-2.704 17.459,-3.962 26.309,-3.271c-4.43,-0.212 -8.867,0.163 -13.23,0.863c-4.366,0.671 -8.687,1.654 -12.866,3.071c-4.184,1.395 -8.279,3.087 -12.134,5.225c-3.92,2.025 -7.525,4.583 -11.037,7.233l-0.521,0.392l-0.271,-0.571c-2.154,-4.559 -4.075,-9.238 -5.412,-14.1c-1.496,-4.825 -2.234,-9.842 -2.738,-14.846c-0.737,-10.013 0.417,-20.346 4.575,-29.513" style="fill:#506815;fill-rule:nonzero;"/><path d="M246.127,41.783c-0.312,5.642 -0.029,11.3 0.604,16.9c0.592,5.604 1.588,11.167 3.109,16.588c1.495,5.42 3.495,10.712 6.112,15.679c2.571,5 5.85,9.596 9.592,13.754l-0.721,-0.042c3.854,-3.204 8.408,-5.237 12.967,-7.004c4.591,-1.721 9.304,-3.067 14.058,-4.212c9.508,-2.292 19.187,-3.771 28.908,-4.634c-9.675,1.25 -19.287,2.992 -28.741,5.313c-4.717,1.196 -9.388,2.591 -13.913,4.346c-4.483,1.8 -8.958,3.875 -12.6,6.983l-0.383,0.329l-0.338,-0.371c-7.737,-8.437 -12.741,-19.021 -15.641,-29.95c-2.909,-10.962 -3.93,-22.412 -3.013,-33.679" style="fill:#506815;fill-rule:nonzero;"/><path d="M230.535,90.815c3.104,8.412 6.52,16.708 10.375,24.787c1.954,4.025 4.054,7.984 6.437,11.754c2.388,3.742 5.042,7.413 8.446,10.163l-0.646,0.004c3.896,-2.904 8.492,-4.267 12.996,-5.479c4.542,-1.163 9.154,-1.979 13.775,-2.646c9.25,-1.346 18.575,-2.017 27.9,-2.217c-9.304,0.592 -18.592,1.53 -27.796,2.905c-4.596,0.725 -9.175,1.591 -13.654,2.8c-4.429,1.237 -8.975,2.691 -12.563,5.45l-0.333,0.258l-0.317,-0.25c-3.629,-2.883 -6.187,-6.704 -8.575,-10.508c-2.362,-3.842 -4.416,-7.855 -6.32,-11.921c-3.83,-8.134 -7.034,-16.542 -9.725,-25.1" style="fill:#506815;fill-rule:nonzero;"/><path d="M251.592,292.312c2.775,-0.291 4.721,-0.271 7.1,-0.346c2.279,-0.02 4.554,-0.041 6.829,0.013c4.546,0.092 9.087,0.317 13.617,0.708c9.054,0.746 18.075,2.092 26.883,4.35c8.767,2.296 17.508,5.113 25.383,9.696c7.879,4.483 15.013,10.379 20.225,17.813c-5.425,-7.292 -12.667,-12.925 -20.587,-17.146c-7.913,-4.317 -16.646,-6.859 -25.371,-8.884c-8.763,-1.991 -17.721,-3.075 -26.696,-3.562c-4.483,-0.258 -8.979,-0.358 -13.467,-0.321c-2.241,0.008 -4.487,0.092 -6.725,0.175c-2.133,0.096 -4.708,0.258 -6.429,0.442l-0.762,-2.938Z" style="fill:#506815;fill-rule:nonzero;"/><path d="M299.317,320.716c0.496,-5.596 1.375,-11.208 3.442,-16.554c0.541,-1.325 1.112,-2.654 1.996,-3.85c0.787,-1.204 1.954,-2.404 3.462,-2.908c2.992,-0.892 5.846,-0.542 8.683,-0.3c5.638,0.775 11.15,2.129 16.475,4.02c5.205,1.992 10.813,4.025 14.567,8.342c-1.946,-2.042 -4.521,-3.283 -7.075,-4.367c-2.558,-1.108 -5.179,-2.075 -7.858,-2.866c-5.325,-1.642 -10.779,-2.988 -16.288,-3.625c-2.708,-0.3 -5.604,-0.604 -8.029,0.087c-2.362,0.771 -3.687,3.538 -4.867,5.921c-2.179,5.075 -3.466,10.592 -4.508,16.1" style="fill:#506815;fill-rule:nonzero;"/><path d="M265.459,326.781c0.096,-7.121 1.013,-14.317 3.454,-21.125c1.213,-3.392 2.917,-6.696 5.471,-9.396c2.529,-2.791 6.238,-4.254 9.75,-4.941c7.15,-1.288 14.367,-1.238 21.496,-0.775c7.137,0.466 14.225,1.416 21.233,2.745c-7.091,-0.775 -14.196,-1.32 -21.296,-1.579c-7.079,-0.225 -14.245,-0.266 -21.12,1.088c-3.446,0.65 -6.717,1.9 -9.075,4.421c-2.409,2.454 -4.034,5.62 -5.375,8.854c-2.563,6.554 -3.892,13.625 -4.538,20.708" style="fill:#506815;fill-rule:nonzero;"/><path d="M104.587,542.339l37.779,257.291l227.775,0l34.446,-257.291l-300,-0Z" style="fill:#d18133;fill-rule:nonzero;"/><path d="M398.841,585.263l5.746,-42.925l-300,-0l37.779,257.291l50.109,0c-4.73,-123.345 63.25,-246.975 206.366,-214.366" style="fill:#c46c23;fill-rule:nonzero;"/><path d="M399.032,562.13l-288.887,0c-16.046,0 -29.167,-13.125 -29.167,-29.166c0,-16.042 13.121,-29.167 29.167,-29.167l288.887,-0c16.042,-0 29.167,13.125 29.167,29.167c0,16.041 -13.125,29.166 -29.167,29.166" style="fill:#d18133;fill-rule:nonzero;"/><path d="M286.178,472.136c0,0 23.246,-44.762 64.688,-31.621c41.446,13.138 80.866,53.571 78.337,83.392c-2.525,29.817 3.542,45.483 3.542,45.483c0,0 -8.092,-6.571 -30.833,-3.033c-22.742,3.537 -64.688,-1.513 -93.496,-31.333c-28.808,-29.817 -31.425,-49.83 -22.238,-62.888" style="fill:#1c5e1c;fill-rule:nonzero;"/><path d="M261.61,454.214c8.82,-2.038 16.737,-0.488 24.633,1.358c7.821,2.013 15.317,4.942 22.542,8.346c14.42,6.904 27.725,15.754 40.441,25.217c12.721,9.462 25.017,19.516 36.55,30.396c5.759,5.445 11.342,11.079 16.542,17.066c5.158,5.992 10.183,12.196 13.975,19.159c-3.929,-6.88 -9.067,-12.971 -14.329,-18.846c-5.3,-5.871 -10.984,-11.375 -16.829,-16.692c-11.709,-10.612 -24.159,-20.383 -37.017,-29.562c-12.871,-9.121 -26.296,-17.525 -40.617,-23.946c-7.171,-3.159 -14.554,-5.821 -22.112,-7.563c-3.767,-0.929 -7.604,-1.437 -11.413,-1.729c-3.712,-0.179 -7.837,-0.1 -10.921,0.821l-1.445,-4.025Z" style="fill:#506815;fill-rule:nonzero;"/><path d="M421.835,534.935c-2.367,-1.75 -4.962,-3.158 -7.608,-4.412c-2.63,-1.292 -5.342,-2.4 -8.117,-3.334c-2.787,-0.883 -5.604,-1.704 -8.483,-2.237c-2.863,-0.608 -5.771,-0.929 -8.675,-1.258l0.529,-0.725c1.162,2.912 1.483,5.975 1.679,8.991c0.171,3.021 0.146,6.046 -0.033,9.054c-0.292,6.03 -1.1,12.009 -2.259,17.913c0.767,-5.963 1.305,-11.954 1.563,-17.942c0.117,-2.991 0.079,-5.991 -0.142,-8.966c-0.246,-2.959 -0.637,-5.963 -1.771,-8.638l-0.345,-0.812l0.875,0.083c5.9,0.579 11.712,1.9 17.295,3.854c5.555,2 10.946,4.658 15.492,8.429" style="fill:#506815;fill-rule:nonzero;"/><path d="M423.186,514.234c-3.954,-3.092 -8.446,-5.408 -13.075,-7.267c-4.617,-1.887 -9.429,-3.3 -14.346,-4.154c-4.925,-0.754 -9.908,-1.287 -14.896,-1.046c-2.496,-0.054 -4.971,0.342 -7.454,0.513c-2.475,0.283 -4.917,0.808 -7.388,1.141l0.38,-0.716c1.612,4.162 3.1,8.387 3.983,12.762c1.008,4.342 1.517,8.792 1.712,13.238c0.396,8.883 -0.741,17.887 -3.716,26.246c1.362,-4.221 2.158,-8.6 2.625,-12.992c0.496,-4.388 0.675,-8.817 0.396,-13.225c-0.25,-4.4 -0.809,-8.796 -1.867,-13.075c-0.929,-4.313 -2.454,-8.463 -4.092,-12.542l-0.246,-0.604l0.621,-0.112c4.967,-0.892 9.984,-1.525 15.029,-1.542c5.046,-0.179 10.08,0.421 15.038,1.242c9.858,1.904 19.533,5.72 27.296,12.133" style="fill:#506815;fill-rule:nonzero;"/><path d="M407.834,483.255c-5.367,-1.779 -10.9,-2.984 -16.467,-3.842c-5.567,-0.887 -11.2,-1.383 -16.825,-1.337c-5.625,0.029 -11.254,0.579 -16.737,1.804c-5.492,1.175 -10.788,3.137 -15.78,5.666l0.23,-0.687c2.083,4.554 2.85,9.483 3.366,14.346c0.463,4.883 0.525,9.783 0.392,14.671c-0.271,9.775 -1.375,19.504 -3.083,29.112c1.32,-9.662 2.15,-19.396 2.383,-29.129c0.083,-4.867 -0.046,-9.742 -0.554,-14.567c-0.563,-4.8 -1.4,-9.654 -3.446,-13.987l-0.217,-0.454l0.446,-0.23c10.163,-5.262 21.688,-7.325 33,-7.266c11.338,0.062 22.654,2.066 33.292,5.9" style="fill:#506815;fill-rule:nonzero;"/><path d="M364.584,455.384c-8.933,0.796 -17.833,1.925 -26.641,3.533c-4.392,0.834 -8.763,1.825 -13.025,3.142c-4.234,1.325 -8.475,2.925 -12.017,5.496l0.162,-0.625c1.788,4.516 1.905,9.308 1.892,13.975c-0.062,4.687 -0.483,9.35 -1.046,13.987c-1.121,9.275 -2.912,18.454 -5.154,27.509c1.858,-9.138 3.383,-18.342 4.463,-27.592c0.504,-4.621 0.862,-9.271 0.866,-13.908c-0.033,-4.6 -0.25,-9.371 -1.975,-13.55l-0.162,-0.392l0.325,-0.238c3.733,-2.75 8.091,-4.22 12.383,-5.533c4.329,-1.275 8.738,-2.208 13.158,-2.983c8.855,-1.567 17.809,-2.467 26.771,-2.821" style="fill:#506815;fill-rule:nonzero;"/></svg>