<?xml version="1.0" encoding="UTF-8" standalone="no"?><!DOCTYPE svg PUBLIC "-//W3C//DTD SVG 1.1//EN" "http://www.w3.org/Graphics/SVG/1.1/DTD/svg11.dtd"><svg width="100%" height="100%" viewBox="0 0 2555 474" version="1.1" xmlns="http://www.w3.org/2000/svg" xmlns:xlink="http://www.w3.org/1999/xlink" xml:space="preserve" xmlns:serif="http://www.serif.com/" style="fill-rule:evenodd;clip-rule:evenodd;stroke-linejoin:round;stroke-miterlimit:2;" fill="#ffffff"><path d="M861.507,427.083l68.75,0l-0,-193.75c-0,0 58.333,-75 93.75,-79.166l102.083,2.083l0,-66.667l-118.75,0c0,0 -108.333,33.334 -139.583,116.667l-6.25,220.833Z"/><path d="M1032.34,260.417l-41.667,20.833l4.167,33.333l102.083,0l0,120.834l64.584,-0l-0,-158.334c-0,0 12.5,-93.75 85.416,-118.75l77.084,-10.416l-0,-70.834l-108.334,2.084c0,-0 -141.666,179.166 -183.333,181.25Z"/><path d="M1384.42,25l0,314.583c0,0 18.75,58.334 62.5,70.834l116.667,-2.084l0,-47.916l-77.083,-0c-0,-0 -18.75,6.25 -22.917,-35.417l0,-179.167l95.833,0l0,-75l-95.833,0l0,-47.916l-79.167,2.083Z"/><path d="M2218.99,70.833c0,0 -133.333,22.917 -112.5,185.417c0,-0 7.534,113.933 129.167,120.833c-0,0 82.367,23.017 107.367,-81.15c-0,0 15.467,-104.951 -3.2,-139.066c-20.139,-36.806 -44.4,-85.167 -120.834,-86.034Zm0,66.667c0,-0 -61.283,-2.483 -66.816,75.867l6.4,47.05c-0,-0 10.416,58.333 81.25,50c-0,-0 41.666,6.25 58.333,-37.5c-0,-0 2.899,-43.252 -0,-64.584c-4.661,-34.302 -25,-79.166 -79.167,-70.833Z"/><path d="M2364.83,79.167l-0,45.833l33.333,-0l-0,187.5c-0,-0 8.333,54.167 66.667,66.667l89.583,-0l-0,-54.167l-68.75,-0c-0,-0 -31.25,-10.417 -33.333,-35.417l-0,-154.166l81.25,-0l-0,-66.667l-81.25,-0l-0,-68.75l-66.667,0l-0,77.083l-20.833,2.084Z"/><path d="M1789.83,170.833l-0,302.084c-0,-0 39.583,10.416 72.916,-37.5l0,-66.667l100,-0c0,-0 110.417,-45.833 106.25,-152.083c0,-0 10.417,-106.25 -93.75,-137.5c0,-0 -133.333,-45.834 -185.416,91.666Zm69.816,2.334l-1.066,128.916l85.416,0c0,0 47.717,-23.116 60.217,-73.116c-0,-0 9.6,-78.867 -54.983,-97.617c-0,-0 -64.584,-12.35 -89.584,41.817Z"/><path d="M246.201,134.871l-0,-69.833l-168.421,-0c-0,-0 -88.932,39.637 -76.608,121.794c-0,-0 3.869,66.726 62.026,92.922l141.924,2.999c0,-0 16.432,28.755 -16.431,57.51l-172.529,-0l0,69.833l201.284,-0c-0,-0 61.617,-32.863 61.617,-102.696c0,-0 8.216,-78.049 -45.186,-90.372l-127.343,-0c0,-0 -70.372,-24.432 -4.107,-78.049l143.774,-4.108Z"/><path d="M409.173,70.833c0,0 -52.083,4.167 -85.416,52.084c-0,-0 -8.334,8.333 25,50l-0,243.75l64.583,-0l0,-231.25l-10.417,-41.667c0,-0 69.834,-36.583 109.417,34.25l12.5,243.75l66.083,1.333l6.834,-236.916c-0,-0 42.916,-44.5 70,-36.167c-0,-0 33.333,-8.333 43.75,31.25l1.333,246.167l57.833,-2.667l5.334,-240.667c-0,0 10.5,-90.333 -102,-104.916c-0,-0 -87.5,6.25 -116.667,83.333l-0.25,-0c0,-0 -47.041,-106.974 -147.917,-91.667Z"/></svg>